<svg width="57" height="60" viewBox="0 0 57 60" fill="none" xmlns="http://www.w3.org/2000/svg">
<rect x="5" y="1" width="47" height="58" rx="3" stroke="black" stroke-width="2"/>
<rect x="10" y="5" width="37" height="9" stroke="black" stroke-width="2"/>
<rect x="1" y="32" width="55" height="18" rx="3" fill="white" stroke="black" stroke-width="2"/>
<line x1="9" y1="20" x2="48" y2="20" stroke="black" stroke-width="2"/>
<line x1="5" y1="36" x2="14" y2="36" stroke="black" stroke-width="2"/>
<line x1="43" y1="36" x2="52" y2="36" stroke="black" stroke-width="2"/>
<line x1="5" y1="40" x2="14" y2="40" stroke="black" stroke-width="2"/>
<line x1="43" y1="40" x2="52" y2="40" stroke="black" stroke-width="2"/>
<line x1="5" y1="44" x2="14" y2="44" stroke="black" stroke-width="2"/>
<line x1="43" y1="44" x2="52" y2="44" stroke="black" stroke-width="2"/>
<line x1="9" y1="27" x2="48" y2="27" stroke="black" stroke-width="2"/>
<path d="M20.2528 36.2727H22.0767V42.358C22.0767 42.9205 21.9503 43.4091 21.6974 43.8239C21.4474 44.2386 21.0994 44.5582 20.6534 44.7827C20.2074 45.0071 19.6889 45.1193 19.098 45.1193C18.5724 45.1193 18.0952 45.027 17.6662 44.8423C17.2401 44.6548 16.902 44.3707 16.652 43.9901C16.402 43.6065 16.2784 43.125 16.2812 42.5455H18.1179C18.1236 42.7756 18.1705 42.973 18.2585 43.1378C18.3494 43.2997 18.473 43.4247 18.6293 43.5128C18.7884 43.598 18.9759 43.6406 19.1918 43.6406C19.419 43.6406 19.6108 43.5923 19.767 43.4957C19.9261 43.3963 20.0469 43.2514 20.1293 43.0611C20.2116 42.8707 20.2528 42.6364 20.2528 42.358V36.2727ZM31.6222 40.6364C31.6222 41.5881 31.4418 42.3977 31.081 43.0653C30.723 43.733 30.2344 44.2429 29.6151 44.5952C28.9986 44.9446 28.3054 45.1193 27.5355 45.1193C26.7599 45.1193 26.0639 44.9432 25.4474 44.5909C24.831 44.2386 24.3438 43.7287 23.9858 43.0611C23.6278 42.3935 23.4489 41.5852 23.4489 40.6364C23.4489 39.6847 23.6278 38.875 23.9858 38.2074C24.3438 37.5398 24.831 37.0312 25.4474 36.6818C26.0639 36.3295 26.7599 36.1534 27.5355 36.1534C28.3054 36.1534 28.9986 36.3295 29.6151 36.6818C30.2344 37.0312 30.723 37.5398 31.081 38.2074C31.4418 38.875 31.6222 39.6847 31.6222 40.6364ZM29.7514 40.6364C29.7514 40.0199 29.6591 39.5 29.4744 39.0767C29.2926 38.6534 29.0355 38.3324 28.7031 38.1136C28.3707 37.8949 27.9815 37.7855 27.5355 37.7855C27.0895 37.7855 26.7003 37.8949 26.3679 38.1136C26.0355 38.3324 25.777 38.6534 25.5923 39.0767C25.4105 39.5 25.3196 40.0199 25.3196 40.6364C25.3196 41.2528 25.4105 41.7727 25.5923 42.196C25.777 42.6193 26.0355 42.9403 26.3679 43.1591C26.7003 43.3778 27.0895 43.4872 27.5355 43.4872C27.9815 43.4872 28.3707 43.3778 28.7031 43.1591C29.0355 42.9403 29.2926 42.6193 29.4744 42.196C29.6591 41.7727 29.7514 41.2528 29.7514 40.6364ZM32.989 45V36.2727H36.4833C37.1254 36.2727 37.6609 36.3679 38.0898 36.5582C38.5188 36.7486 38.8413 37.0128 39.0572 37.3509C39.2731 37.6861 39.381 38.0724 39.381 38.5099C39.381 38.8509 39.3129 39.1506 39.1765 39.4091C39.0401 39.6648 38.8526 39.875 38.614 40.0398C38.3782 40.2017 38.1083 40.3168 37.8043 40.3849V40.4702C38.1367 40.4844 38.4478 40.5781 38.7376 40.7514C39.0302 40.9247 39.2674 41.1676 39.4492 41.4801C39.631 41.7898 39.7219 42.1591 39.7219 42.5881C39.7219 43.0511 39.6069 43.4645 39.3768 43.8281C39.1495 44.1889 38.8129 44.4744 38.3668 44.6847C37.9208 44.8949 37.3711 45 36.7177 45H32.989ZM34.8342 43.4915H36.3384C36.8526 43.4915 37.2276 43.3935 37.4634 43.1974C37.6992 42.9986 37.8171 42.7344 37.8171 42.4048C37.8171 42.1634 37.7589 41.9503 37.6424 41.7656C37.5259 41.581 37.3597 41.4361 37.1438 41.331C36.9308 41.2259 36.6765 41.1733 36.381 41.1733H34.8342V43.4915ZM34.8342 39.9247H36.2021C36.4549 39.9247 36.6793 39.8807 36.8754 39.7926C37.0742 39.7017 37.2305 39.5739 37.3441 39.4091C37.4606 39.2443 37.5188 39.0469 37.5188 38.8168C37.5188 38.5014 37.4066 38.2472 37.1822 38.054C36.9606 37.8608 36.6452 37.7642 36.2362 37.7642H34.8342V39.9247Z" fill="black"/>
</svg>
